# xmcd
#
# Track frame offsets: 
#        150
#        14661
#        25031
#        36638
#        49013
#        61860
#        80006
#        94251
#        106640
#        118345
#        130628
#        143416
#        157937
#        170965
#        182153
#        195005
#        207858
#        216555
#        229060
#        241428
#
# Disc length: 3375 seconds
#
# Revision: 0
# Processed by: cddbd v1.5.2PL0 Copyright (c) Steve Scherf et al.
# Submitted via: ExactAudioCopy v1.0b3
#
DISCID=150d2d14
DTITLE=Various Artist - Wilko Johnson Presents: The First Time I Met 
DTITLE=The Blues - Chess Masters
DYEAR=2016
DGENRE=Blues
TTITLE0=Otis Rush - So Many Roads, So Many Trains
TTITLE1=Buddy Guy - First Time I Met The Blues
TTITLE2=Howlin' Wolf - Howlin' For My Darlin'
TTITLE3=Howlin' Wolf - Spoonful
TTITLE4=Howlin' Wolf - Back Door Man
TTITLE5=Howlin' Wolf - Goin' Down Slow
TTITLE6=Sonny Boy Williamson - Help Me
TTITLE7=Bo Diddley - Gunslinger (Bo Diddley's A Gunslinger)
TTITLE8=Chuck Berry - Nadine
TTITLE9=Chuck Berry - No Particular Place To Go
TTITLE10=Tommy Tucker - High Heel Sneakers
TTITLE11=Tommy Tucker - I Don't Want'Cha
TTITLE12=Sugar Pie DeSanto - Slip In Mules
TTITLE13=Tommy Tucker - Long Tall Shorty
TTITLE14=Sugar Pie DeSanto - Soulful Dress
TTITLE15=Howlin' Wolf - Killing Floor
TTITLE16=Sonny Boy Williamson - Checkin' Up On My Baby
TTITLE17=Muddy Waters - The Same Thing
TTITLE18=John Lee Hooker - I'm In The Mood
TTITLE19=Sonny Boy Williamson - Bring It On Home
EXTD=
EXTT0=
EXTT1=
EXTT2=
EXTT3=
EXTT4=
EXTT5=
EXTT6=
EXTT7=
EXTT8=
EXTT9=
EXTT10=
EXTT11=
EXTT12=
EXTT13=
EXTT14=
EXTT15=
EXTT16=
EXTT17=
EXTT18=
EXTT19=
PLAYORDER=
